<svg xmlns="http://www.w3.org/2000/svg" width="200" height="200" viewBox="0 0 200 200" role="img" aria-label="测量工具图标">
  <defs>
    <linearGradient id="g1" x1="0" y1="0" x2="1" y2="1">
      <stop offset="0%" stop-color="#34C3FF"/>
      <stop offset="100%" stop-color="#2B6CFF"/>
    </linearGradient>
    <linearGradient id="g2" x1="0" y1="0" x2="1" y2="1">
      <stop offset="0%" stop-color="#38D6C4"/>
      <stop offset="100%" stop-color="#14B8A6"/>
    </linearGradient>
    <filter id="shadow" x="-20%" y="-20%" width="140%" height="140%">
      <feDropShadow dx="0" dy="4" stdDeviation="6" flood-color="#D8E3F2" flood-opacity="0.8"/>
    </filter>
  </defs>
  <rect x="0" y="0" width="200" height="200" fill="#FFFFFF"/>
  <g filter="url(#shadow)">
    <rect x="22" y="22" width="156" height="156" rx="34" fill="#FFFFFF" stroke="#E5EDF7" stroke-width="3"/>
  </g>
  <g stroke="#1E3357" stroke-width="5" stroke-linecap="round" stroke-linejoin="round" fill="none">
    <line x1="48" y1="138" x2="148" y2="52"/>
    <polyline points="136,48 154,48 154,66" stroke="url(#g2)"/>
    <polyline points="42,124 42,142 60,142" stroke="url(#g2)"/>
    <line x1="48" y1="52" x2="48" y2="72"/>
    <line x1="148" y1="128" x2="148" y2="148"/>
    <line x1="40" y1="62" x2="56" y2="62"/>
    <line x1="140" y1="138" x2="156" y2="138"/>
  </g>
  <g transform="rotate(-36 102 100)">
    <rect x="68" y="84" width="68" height="32" rx="8" fill="url(#g1)" stroke="#1E3357" stroke-width="5"/>
    <g stroke="#FFFFFF" stroke-width="4" stroke-linecap="round">
      <line x1="80" y1="88" x2="80" y2="100"/>
      <line x1="92" y1="88" x2="92" y2="96"/>
      <line x1="104" y1="88" x2="104" y2="100"/>
      <line x1="116" y1="88" x2="116" y2="96"/>
      <line x1="128" y1="88" x2="128" y2="100"/>
    </g>
  </g>
</svg>
