<svg xmlns="http://www.w3.org/2000/svg" width="200" height="200" viewBox="0 0 200 200" role="img" aria-label="切换风格图标">
  <defs>
    <linearGradient id="g1" x1="0" y1="0" x2="1" y2="1">
      <stop offset="0%" stop-color="#34C3FF"/>
      <stop offset="100%" stop-color="#2B6CFF"/>
    </linearGradient>
    <linearGradient id="g2" x1="0" y1="0" x2="1" y2="1">
      <stop offset="0%" stop-color="#38D6C4"/>
      <stop offset="100%" stop-color="#14B8A6"/>
    </linearGradient>
    <linearGradient id="g3" x1="0" y1="0" x2="1" y2="1">
      <stop offset="0%" stop-color="#F7B733"/>
      <stop offset="100%" stop-color="#FC4A1A"/>
    </linearGradient>
    <filter id="shadow" x="-20%" y="-20%" width="140%" height="140%">
      <feDropShadow dx="0" dy="4" stdDeviation="6" flood-color="#D8E3F2" flood-opacity="0.8"/>
    </filter>
  </defs>
  <rect x="0" y="0" width="200" height="200" fill="#FFFFFF"/>
  <g filter="url(#shadow)">
    <rect x="22" y="22" width="156" height="156" rx="34" fill="#FFFFFF" stroke="#E5EDF7" stroke-width="3"/>
  </g>
  <g stroke="#1E3357" stroke-width="5" stroke-linecap="round" stroke-linejoin="round">
    <path d="M76 56c16 0 24 14 24 28 0 14-9 25-21 25-6 0-10 5-10 11 0 8 6 14 16 14h10" fill="none"/>
    <path d="M124 144c-16 0-24-14-24-28 0-14 9-25 21-25 6 0 10-5 10-11 0-8-6-14-16-14h-10" fill="none"/>
    <path d="M86 60c10 0 16 7 16 18 0 8-5 15-12 20" fill="url(#g1)" opacity="0.15" stroke="none"/>
    <circle cx="69" cy="61" r="11" fill="url(#g1)"/>
    <circle cx="131" cy="139" r="11" fill="url(#g2)"/>
    <circle cx="132" cy="62" r="9" fill="url(#g3)"/>
    <circle cx="66" cy="137" r="9" fill="url(#g2)"/>
    <circle cx="100" cy="100" r="12" fill="#FFFFFF"/>
    <path d="M92 100h16" fill="none"/>
    <path d="M100 92v16" fill="none"/>
  </g>
</svg>
